# xmcd
#
# Track frame offsets:
#	182
#	19860
#	43372
#	64085
#	87230
#	104047
#	122087
#	147885
#	165305
#	177070
#
# Disc length: 2561 seconds
#
# Revision: 6
# Processed by: cddbd v1.5.2PL0 Copyright (c) Steve Scherf et al.
# Submitted via: audiograbber 1.83.01
#
DISCID=8609ff0a
DTITLE=The Brandos - Pass The Hat
DYEAR=1996
DGENRE=Southern Rock
TTITLE0=Pass The Hat
TTITLE1=The Siege
TTITLE2=Tell Her That I Love Her
TTITLE3=The Other Side
TTITLE4=Can't Go Home
TTITLE5=You'll Still Be Mine
TTITLE6=The Big Snafu
TTITLE7=German Skies
TTITLE8=Let The Teardrops Fall
TTITLE9=My Friend, My Friend
EXTD=YEAR: 1996
EXTT0=
EXTT1=
EXTT2=
EXTT3=
EXTT4=
EXTT5=
EXTT6=
EXTT7=
EXTT8=
EXTT9=
PLAYORDER=
